<svg xmlns="http://www.w3.org/2000/svg" viewBox="0 0 20.49 19.73"><defs><style>.cls-1{fill:none;stroke:#1c819e;stroke-miterlimit:10;}.cls-2{fill:#1c819e;}</style></defs><title>icon_search_blue</title><g id="Layer_2" data-name="Layer 2"><g id="Layer_1-2" data-name="Layer 1"><path class="cls-1" d="M8,1.5A6.38,6.38,0,0,0,1.5,7.72,6.37,6.37,0,0,0,8,13.93a6.37,6.37,0,0,0,6.51-6.21A6.38,6.38,0,0,0,8,1.5Z"/><path class="cls-1" d="M19.59,17.22l-5.36-4.47a1.11,1.11,0,0,0-.62-.24,7,7,0,0,0,1.91-4.79A7.38,7.38,0,0,0,8,.5,7.38,7.38,0,0,0,.5,7.72,7.37,7.37,0,0,0,8,14.93a7.67,7.67,0,0,0,4.37-1.35,1.14,1.14,0,0,0,.39.92L18.13,19a1.14,1.14,0,0,0,1.46-1.75ZM8,13.93A6.37,6.37,0,0,1,1.5,7.72,6.38,6.38,0,0,1,8,1.5a6.38,6.38,0,0,1,6.51,6.22A6.37,6.37,0,0,1,8,13.93Z"/><ellipse class="cls-2" cx="16.08" cy="15.74" rx="1.46" ry="5.03" transform="translate(-6.35 17.5) rotate(-48.87)"/></g></g></svg>